# xmcd CD database file
#
# Track frame offsets:
#	150
#	9180
#	21392
#	38352
#	54230
#	68375
#	73985
#	88557
#	100657
#	117875
#	137497
#	155190
#	177695
#	190325
#	204430
#
# Disc length: 3000 seconds
#
# Revision: 3
# Processed by: cddbd v1.5.1PL0 Copyright (c) Steve Scherf et al.
# Submitted via: CDex 1.51
#
DISCID=c20bb60f
DTITLE=Tom Jobim - Antonio Brasileiro - Antonio brasileiro
DYEAR=1994
DGENRE=MPB
TTITLE0=So danco samba
TTITLE1=Piano na mangueira
TTITLE2=How insensitive (insensatez)
TTITLE3=Querida
TTITLE4=Surfboard
TTITLE5=Samba de Maria Luiza
TTITLE6=Forever green
TTITLE7=Maracangalha
TTITLE8=Maricotinha
TTITLE9=Pato preto
TTITLE10=Meu amigo Radames
TTITLE11=Blue train
TTITLE12=Radames y pele
TTITLE13=Chora coraaoo
TTITLE14=Trem de ferro
EXTD=YEAR: 1994
EXTT0=
EXTT1=
EXTT2=
EXTT3=
EXTT4=
EXTT5=
EXTT6=
EXTT7=
EXTT8=
EXTT9=
EXTT10=
EXTT11=
EXTT12=
EXTT13=
EXTT14=
PLAYORDER=
